<!DOCTYPE svg PUBLIC "-//W3C//DTD SVG 1.1//EN" "http://www.w3.org/Graphics/SVG/1.1/DTD/svg11.dtd">
<!-- Uploaded to: SVG Repo, www.svgrepo.com, Transformed by: SVG Repo Mixer Tools -->
<svg fill="#ffffff" version="1.1" id="Capa_1" xmlns="http://www.w3.org/2000/svg" xmlns:xlink="http://www.w3.org/1999/xlink" width="64px" height="64px" viewBox="0 0 588.479 588.48" xml:space="preserve" stroke="#ffffff">
<g id="SVGRepo_bgCarrier" stroke-width="0"/>
<g id="SVGRepo_tracerCarrier" stroke-linecap="round" stroke-linejoin="round"/>
<g id="SVGRepo_iconCarrier"> <g> <g> <g> <path d="M529.501,129.526H249.666v-9.572c0-32.059-26.082-58.14-58.14-58.14h-58.745c-32.058,0-58.14,26.082-58.14,58.14v9.572 H58.979c-32.245,0-58.479,26.233-58.479,58.479v280.182c0,32.246,26.233,58.479,58.479,58.479h470.522 c32.245,0,58.479-26.232,58.479-58.479V188.005C587.979,155.759,561.746,129.526,529.501,129.526z M117.481,119.954 c0-8.45,6.85-15.3,15.3-15.3h58.746c8.45,0,15.3,6.85,15.3,15.3v9.572h-89.345V119.954z M545.139,468.187 c0,8.637-7.001,15.639-15.638,15.639H58.979c-8.637,0-15.638-7-15.638-15.639V188.005c0-8.637,7.001-15.639,15.638-15.639h15.662 v0.217h42.84h89.345h42.84v-0.217h279.835c8.637,0,15.638,7.001,15.638,15.639V468.187L545.139,468.187z"/> <path d="M529.501,527.166H58.979C26.458,527.166,0,500.708,0,468.187V188.005c0-32.521,26.458-58.979,58.979-58.979h15.162 v-9.072c0-32.334,26.306-58.64,58.64-58.64h58.745c32.334,0,58.64,26.306,58.64,58.64v9.072h279.335 c32.521,0,58.979,26.458,58.979,58.979v280.182C588.479,500.708,562.021,527.166,529.501,527.166z M58.979,130.026 C27.009,130.026,1,156.036,1,188.005v280.182c0,31.97,26.009,57.979,57.979,57.979h470.522c31.97,0,57.979-26.009,57.979-57.979 V188.005c0-31.969-26.009-57.979-57.979-57.979H249.166v-10.072c0-31.783-25.857-57.64-57.64-57.64h-58.745 c-31.783,0-57.64,25.857-57.64,57.64v10.072H58.979z M529.501,484.326H58.979c-8.898,0-16.138-7.24-16.138-16.139V188.005 c0-8.899,7.24-16.139,16.138-16.139h16.162v0.217h174.025v-0.217h280.335c8.898,0,16.138,7.24,16.138,16.139v280.182 C545.639,477.085,538.399,484.326,529.501,484.326z M58.979,172.866c-8.347,0-15.138,6.791-15.138,15.139v280.182 c0,8.348,6.791,15.139,15.138,15.139h470.522c8.347,0,15.138-6.791,15.138-15.139V188.005c0-8.348-6.791-15.139-15.138-15.139 H250.166v0.217H74.141v-0.217H58.979z M207.326,130.026h-90.345v-10.072c0-8.712,7.088-15.8,15.8-15.8h58.746 c8.712,0,15.8,7.088,15.8,15.8V130.026z M117.981,129.026h88.345v-9.072c0-8.161-6.639-14.8-14.8-14.8h-58.746 c-8.161,0-14.8,6.639-14.8,14.8V129.026z"/> </g> <g> <path d="M447.878,245.241c-10.747-10.748-23.273-19.189-37.231-25.093c-14.473-6.123-29.822-9.226-45.623-9.226 c-15.8,0-31.148,3.104-45.622,9.226c-13.958,5.903-26.485,14.346-37.232,25.093c-10.748,10.748-19.19,23.273-25.094,37.232 c-6.122,14.474-9.226,29.823-9.226,45.622c0,15.801,3.104,31.15,9.226,45.623c5.903,13.959,14.346,26.484,25.094,37.232 s23.274,19.189,37.232,25.094c14.473,6.123,29.822,9.227,45.622,9.227c15.801,0,31.149-3.104,45.623-9.227 c13.958-5.904,26.485-14.346,37.231-25.094c10.748-10.748,19.19-23.273,25.094-37.232c6.122-14.473,9.227-29.822,9.227-45.623 c0-15.799-3.104-31.148-9.227-45.622C467.068,268.515,458.626,255.989,447.878,245.241z M365.023,402.429 c-41.053,0-74.334-33.279-74.334-74.334c0-41.053,33.281-74.333,74.334-74.333c41.054,0,74.335,33.281,74.335,74.333 C439.358,369.15,406.077,402.429,365.023,402.429z"/> <path d="M365.023,445.771c-15.869,0-31.284-3.117-45.816-9.266c-14.02-5.931-26.6-14.409-37.391-25.201 c-10.794-10.795-19.273-23.375-25.201-37.392c-6.148-14.534-9.266-29.949-9.266-45.817c0-15.866,3.117-31.281,9.266-45.817 c5.929-14.018,14.407-26.598,25.201-37.391c10.792-10.792,23.372-19.271,37.391-25.2c14.534-6.148,29.949-9.266,45.816-9.266 c15.869,0,31.284,3.117,45.818,9.266c14.019,5.929,26.598,14.408,37.39,25.2c10.794,10.793,19.272,23.374,25.201,37.391 c6.148,14.537,9.266,29.952,9.266,45.817c0,15.867-3.117,31.282-9.266,45.817c-5.928,14.018-14.407,26.598-25.201,37.392 c-10.789,10.791-23.369,19.27-37.391,25.201C396.308,442.654,380.892,445.771,365.023,445.771z M365.023,211.422 c-15.733,0-31.017,3.091-45.428,9.187c-13.899,5.879-26.373,14.286-37.073,24.986c-10.702,10.702-19.108,23.175-24.987,37.073 c-6.096,14.412-9.187,29.696-9.187,45.427c0,15.733,3.091,31.018,9.187,45.429c5.877,13.896,14.284,26.37,24.987,37.073 c10.7,10.7,23.173,19.106,37.073,24.986c14.409,6.097,29.693,9.188,45.428,9.188s31.019-3.091,45.429-9.188 c13.901-5.88,26.375-14.287,37.072-24.986c10.703-10.703,19.109-23.176,24.986-37.073c6.097-14.412,9.188-29.696,9.188-45.429 c0-15.731-3.091-31.015-9.188-45.427c-5.877-13.898-14.284-26.372-24.986-37.073c-10.7-10.701-23.173-19.107-37.072-24.986 C396.042,214.513,380.758,211.422,365.023,211.422z M365.023,402.929c-41.264,0-74.834-33.57-74.834-74.834 c0-41.263,33.57-74.833,74.834-74.833s74.835,33.57,74.835,74.833C439.858,369.359,406.287,402.929,365.023,402.929z M365.023,254.262c-40.712,0-73.834,33.122-73.834,73.833s33.122,73.834,73.834,73.834c40.713,0,73.835-33.122,73.835-73.834 S405.736,254.262,365.023,254.262z"/> </g> <g> <circle cx="493.567" cy="220.408" r="21.726"/> <path d="M493.567,242.634c-12.255,0-22.226-9.971-22.226-22.226s9.971-22.226,22.226-22.226c12.256,0,22.227,9.97,22.227,22.226 S505.823,242.634,493.567,242.634z M493.567,199.183c-11.704,0-21.226,9.522-21.226,21.226c0,11.704,9.521,21.226,21.226,21.226 s21.227-9.522,21.227-21.226C514.794,208.705,505.271,199.183,493.567,199.183z"/> </g> </g> </g> </g>
</svg>