<!DOCTYPE svg PUBLIC "-//W3C//DTD SVG 1.1//EN" "http://www.w3.org/Graphics/SVG/1.1/DTD/svg11.dtd">
<!-- Uploaded to: SVG Repo, www.svgrepo.com, Transformed by: SVG Repo Mixer Tools -->
<svg fill="#ffffff" height="64px" width="64px" version="1.1" id="Layer_1" xmlns="http://www.w3.org/2000/svg" xmlns:xlink="http://www.w3.org/1999/xlink" viewBox="0 0 512 512" xml:space="preserve">
<g id="SVGRepo_bgCarrier" stroke-width="0"/>
<g id="SVGRepo_tracerCarrier" stroke-linecap="round" stroke-linejoin="round"/>
<g id="SVGRepo_iconCarrier"> <g transform="translate(1 1)"> <g> <g> <path d="M127,383H75.8c-5.12,0-8.533,3.413-8.533,8.533v34.133c0,5.12,3.413,8.533,8.533,8.533H127 c5.12,0,8.533-3.413,8.533-8.533v-34.133C135.533,386.413,132.12,383,127,383z M118.467,417.133H84.333v-17.067h34.133V417.133z"/> <path d="M348.867,383h-51.2c-5.12,0-8.533,3.413-8.533,8.533v34.133c0,5.12,3.413,8.533,8.533,8.533h51.2 c5.12,0,8.533-3.413,8.533-8.533v-34.133C357.4,386.413,353.987,383,348.867,383z M340.333,417.133H306.2v-17.067h34.133V417.133 z"/> <path d="M434.2,383H383c-5.12,0-8.533,3.413-8.533,8.533v34.133c0,5.12,3.413,8.533,8.533,8.533h51.2 c5.12,0,8.533-3.413,8.533-8.533v-34.133C442.733,386.413,439.32,383,434.2,383z M425.667,417.133h-34.133v-17.067h34.133 V417.133z"/> <path d="M127,75.8H75.8c-5.12,0-8.533,3.413-8.533,8.533v34.133c0,5.12,3.413,8.533,8.533,8.533H127 c5.12,0,8.533-3.413,8.533-8.533V84.333C135.533,79.213,132.12,75.8,127,75.8z M118.467,109.933H84.333V92.867h34.133V109.933z"/> <path d="M348.867,75.8h-51.2c-5.12,0-8.533,3.413-8.533,8.533v34.133c0,5.12,3.413,8.533,8.533,8.533h51.2 c5.12,0,8.533-3.413,8.533-8.533V84.333C357.4,79.213,353.987,75.8,348.867,75.8z M340.333,109.933H306.2V92.867h34.133V109.933z "/> <path d="M434.2,75.8H383c-5.12,0-8.533,3.413-8.533,8.533v34.133c0,5.12,3.413,8.533,8.533,8.533h51.2 c5.12,0,8.533-3.413,8.533-8.533V84.333C442.733,79.213,439.32,75.8,434.2,75.8z M425.667,109.933h-34.133V92.867h34.133V109.933 z"/> <path d="M207.213,408.6l45.227-45.227c3.413-3.413,3.413-8.533,0-11.947L207.213,306.2l45.227-45.227 c3.413-3.413,3.413-8.533,0-11.947L207.213,203.8l45.227-45.227c3.413-3.413,3.413-8.533,0-11.947L207.213,101.4l11.093-11.093 c0,0,0,0,0.001-0.001l34.133-34.133c2.56-2.56,3.413-5.973,1.707-9.387c-0.853-3.413-4.267-5.12-7.68-5.12H24.6 C10.093,41.667-1,52.76-1,67.267v17.067v34.133v273.067v34.133v17.067c0,14.507,11.093,25.6,25.6,25.6h221.867 c3.413,0,6.827-1.707,7.68-5.12c1.707-3.413,0.853-6.827-1.707-9.387L207.213,408.6z M191.853,417.133h-22.187v-17.067h22.187 l-2.56,2.56c-3.413,3.413-3.413,8.533,0,11.947L191.853,417.133z M191.853,109.933h-22.187V92.867h22.187l-2.56,2.56 c-0.64,0.64-1.16,1.34-1.56,2.078c-0.667,1.229-1,2.562-1,3.896s0.333,2.667,1,3.896c0.4,0.737,0.92,1.438,1.56,2.078 L191.853,109.933z M16.067,92.867h17.067v17.067H16.067V92.867z M16.067,400.067h17.067v17.067H16.067V400.067z M24.6,451.267 c-5.12,0-8.533-3.413-8.533-8.533V434.2h25.6c5.12,0,8.533-3.413,8.533-8.533v-34.133c0-5.12-3.413-8.533-8.533-8.533h-25.6V127 h25.6c5.12,0,8.533-3.413,8.533-8.533V84.333c0-5.12-3.413-8.533-8.533-8.533h-25.6v-8.533c0-5.12,3.413-8.533,8.533-8.533 h201.387L208.92,75.8h-47.787c-5.12,0-8.533,3.413-8.533,8.533v34.133c0,5.12,3.413,8.533,8.533,8.533h47.787l25.6,25.6 l-45.227,45.227c-3.413,3.413-3.413,8.533,0,11.947L234.52,255l-45.227,45.227c-3.413,3.413-3.413,8.533,0,11.947L234.52,357.4 l-25.6,25.6h-47.787c-5.12,0-8.533,3.413-8.533,8.533v34.133c0,5.12,3.413,8.533,8.533,8.533h47.787l17.067,17.067H24.6z"/> <path d="M485.4,41.667H297.667c-2.56,0-4.267,0.853-5.973,2.56l-51.2,51.2c-3.413,3.413-3.413,8.533,0,11.947L285.72,152.6 l-45.227,45.227c-3.413,3.413-3.413,8.533,0,11.947L285.72,255l-45.227,45.227c-3.413,3.413-3.413,8.533,0,11.947L285.72,357.4 l-45.227,45.227c-3.413,3.413-3.413,8.533,0,11.947l51.2,51.2c1.707,1.707,3.413,2.56,5.973,2.56H485.4 c14.507,0,25.6-11.093,25.6-25.6v-17.067v-34.133V118.467V84.333V67.267C511,52.76,499.907,41.667,485.4,41.667z M493.933,109.933h-17.067V92.867h17.067V109.933z M485.4,451.267H301.08L258.413,408.6l45.227-45.227 c3.413-3.413,3.413-8.533,0-11.947L258.413,306.2l45.227-45.227c3.413-3.413,3.413-8.533,0-11.947L258.413,203.8l45.227-45.227 c3.413-3.413,3.413-8.533,0-11.947L258.413,101.4l42.667-42.667H485.4c5.12,0,8.533,3.413,8.533,8.533V75.8h-25.6 c-5.12,0-8.533,3.413-8.533,8.533v34.133c0,5.12,3.413,8.533,8.533,8.533h25.6v256h-25.6c-5.12,0-8.533,3.413-8.533,8.533v34.133 c0,5.12,3.413,8.533,8.533,8.533h25.6v8.533C493.933,447.853,490.52,451.267,485.4,451.267z M493.933,417.133h-17.067v-17.067 h17.067V417.133z"/> </g> </g> </g> </g>
</svg>